<svg width="143" height="60" viewBox="0 0 143 60" fill="none" xmlns="http://www.w3.org/2000/svg">
<path d="M13.1041 21.7515C12.8227 21.9185 12.6501 22.2216 12.6501 22.5488V25.2299C12.6501 25.742 13.0653 26.1572 13.5774 26.1572H17.9474C18.4595 26.1572 18.8747 25.742 18.8747 25.2299V19.9551C18.8747 19.2363 18.0922 18.7908 17.4741 19.1577L13.1041 21.7515Z" fill="#EB5757"/>
<path d="M13.5369 32.7441C13.0248 32.7441 12.6096 33.1593 12.6096 33.6714V36.3522C12.6096 36.6796 12.7822 36.9828 13.0636 37.1497L17.4335 39.7436C18.0517 40.1105 18.8341 39.6648 18.8341 38.9462V33.6714C18.8341 33.1593 18.419 32.7441 17.9069 32.7441H13.5369Z" fill="#EB5757"/>
<path fill-rule="evenodd" clip-rule="evenodd" d="M26.6279 49.8099C26.0564 50.1374 25.3445 49.7247 25.3445 49.066V10.2961C25.3445 9.63679 26.0576 9.22426 26.6291 9.55286L42.9953 18.9627C43.2614 19.1156 43.4254 19.3991 43.4254 19.7059V39.69C43.4254 39.9972 43.2611 40.281 42.9942 40.4339L26.6279 49.8099ZM32.7169 39.3045C32.1453 39.632 31.4335 39.2194 31.4335 38.5607V20.8204C31.4335 20.1611 32.1465 19.7486 32.718 20.0772L36.9065 22.4854C37.1725 22.6384 37.3366 22.9218 37.3366 23.2286V36.1608C37.3366 36.4683 37.172 36.752 36.9053 36.9049L32.7169 39.3045Z" fill="#EB5757"/>
<path fill-rule="evenodd" clip-rule="evenodd" d="M0 15.325C0 14.9947 0.175719 14.6893 0.461301 14.5233L25.2316 0.125591C25.5216 -0.0430082 25.8801 -0.0417774 26.169 0.12881L50.545 14.5223C50.8275 14.6891 51.0009 14.9927 51.0009 15.3208V43.7402C51.0009 44.0673 50.8287 44.3699 50.5477 44.5371L26.1718 59.0467C25.8815 59.2195 25.5202 59.2207 25.2287 59.0501L0.458501 44.5362C0.174499 44.3699 0 44.0654 0 43.7362V15.325ZM4.9562 41.9586C4.67221 41.7923 4.49772 41.4879 4.49772 41.1587V17.913C4.49772 17.5827 4.67344 17.2773 4.95902 17.1113L25.2137 5.33831C25.5037 5.1697 25.8622 5.17093 26.1511 5.34152L46.0473 17.0898C46.3298 17.2566 46.5032 17.5602 46.5032 17.8883V41.1834C46.5032 41.5101 46.3311 41.813 46.0501 41.9803L26.1538 53.8233C25.8635 53.9961 25.5022 53.9973 25.2107 53.8264L4.9562 41.9586Z" fill="#EB5757"/>
<path d="M82.5504 39.2963C82.5504 39.5375 82.5021 39.827 82.5021 40.0682C82.5021 42.6733 82.5021 45.2302 82.5021 47.8354C82.5021 48.7038 82.3574 48.8003 81.5372 48.8003C80.8136 48.8003 80.0899 48.8003 79.318 48.8003C78.7874 48.8003 78.5461 48.559 78.5461 48.0284C78.5461 42.5768 78.5461 37.1253 78.5461 31.722C78.5461 31.1914 78.7874 30.9502 79.318 30.9502C80.1382 30.9502 80.9583 30.9019 81.7302 30.9502C81.9714 30.9502 82.3574 31.1431 82.5021 31.3361C84.1906 34.2307 85.8792 37.1253 87.5677 40.0199C87.6642 40.1647 87.8089 40.3094 88.0501 40.4059C88.0501 40.2129 88.0984 40.0199 88.0984 39.827C88.0984 37.1736 88.0984 34.5202 88.0984 31.915C88.0984 31.0466 88.1949 30.9984 89.015 30.9984C89.7386 30.9984 90.4623 30.9984 91.1377 30.9984C91.8131 30.9984 92.0061 31.1914 92.0061 31.8668C92.0061 33.1694 92.0061 34.4719 92.0061 35.7263C92.0061 39.7305 92.0061 43.7347 92.0061 47.7872C92.0061 48.752 91.8614 48.8968 90.8965 48.8968C90.2211 48.8968 89.5457 48.945 88.8703 48.8968C88.5326 48.8485 88.1466 48.6555 88.0019 48.4143C86.4581 45.9057 84.9143 43.3487 83.4187 40.7918C83.1775 40.3576 82.9845 39.8752 82.7433 39.3928C82.6468 39.2963 82.5986 39.2963 82.5504 39.2963Z" fill="white"/>
<path d="M119.603 39.2963C119.603 39.5375 119.555 39.827 119.555 40.0682C119.555 42.6733 119.555 45.2302 119.555 47.8354C119.555 48.7038 119.41 48.8003 118.59 48.8003C117.866 48.8003 117.143 48.8003 116.371 48.8003C115.84 48.8003 115.599 48.559 115.599 48.0284C115.599 42.5768 115.599 37.1253 115.599 31.722C115.599 31.1914 115.84 30.9502 116.371 30.9502C117.191 30.9502 118.011 30.9019 118.783 30.9502C119.024 30.9502 119.41 31.1431 119.555 31.3361C121.243 34.2307 122.932 37.1253 124.62 40.0199C124.717 40.1647 124.862 40.3094 125.103 40.4059C125.103 40.2129 125.151 40.0199 125.151 39.827C125.151 37.1736 125.151 34.5202 125.151 31.915C125.151 31.0466 125.248 30.9984 126.068 30.9984C126.791 30.9984 127.515 30.9984 128.287 30.9984C128.914 30.9984 129.059 31.1914 129.107 31.8185C129.107 31.915 129.107 32.0115 129.107 32.108C129.107 37.3183 129.107 42.5768 129.107 47.7872C129.107 48.752 128.962 48.8968 127.997 48.8968C127.322 48.8968 126.647 48.945 125.971 48.8968C125.634 48.8485 125.248 48.6555 125.103 48.4143C123.559 45.9057 122.015 43.3487 120.52 40.7918C120.279 40.3576 120.086 39.8752 119.844 39.3928C119.7 39.2963 119.651 39.2963 119.603 39.2963Z" fill="white"/>
<path d="M72.5651 17.4426C72.951 17.6838 73.2887 17.8768 73.6265 18.0698C74.6396 18.7452 75.2667 19.6136 75.2185 20.8679C75.1702 21.8328 75.1702 22.7977 75.0255 23.7143C74.7843 25.0169 73.7712 25.7405 72.6133 26.2229C71.359 26.7536 70.0082 26.8984 68.6574 26.8984C66.7276 26.8984 64.8461 26.8984 62.9164 26.8984C62.1445 26.8984 62.048 26.7536 61.9998 26.03C61.9998 20.6267 61.9998 15.2717 61.9998 9.86838C61.9998 9.14472 62.1445 9 62.8681 9C64.7496 9 66.6311 9 68.4644 9.04824C69.8635 9.09648 71.2143 9.28946 72.4686 10.0131C73.5782 10.6403 74.2536 11.5087 74.3019 12.8112C74.3019 13.3902 74.3019 14.0173 74.3019 14.5962C74.3019 15.6576 73.8677 16.4777 72.951 17.0567C72.8546 17.1532 72.7581 17.2496 72.5651 17.4426ZM66.1487 21.3986C66.1487 21.6881 66.1487 21.9293 66.1487 22.2187C66.1487 23.859 66.004 23.666 67.596 23.666C68.3197 23.666 69.0916 23.6178 69.8152 23.4248C70.5871 23.1836 71.1178 22.7012 71.0213 21.1574C70.9731 20.4337 70.6354 19.9513 69.9599 19.6618C68.8021 19.1794 67.6443 19.4206 66.4864 19.4206C66.3899 19.4206 66.1969 19.7101 66.1487 19.8548C66.1487 20.3372 66.1487 20.8679 66.1487 21.3986ZM66.1487 14.2585C66.1487 14.741 66.1005 15.2717 66.1487 15.7541C66.1487 15.9471 66.3417 16.2365 66.4382 16.2365C67.3065 16.1883 68.1749 16.2365 68.9951 15.9953C70.0082 15.6576 70.2012 15.0304 70.1047 13.6314C70.0564 13.0042 69.6705 12.6665 69.1398 12.57C68.3197 12.4253 67.4995 12.4253 66.6794 12.377C66.2934 12.3288 66.1487 12.57 66.1487 12.9077C66.1969 13.2937 66.1487 13.7761 66.1487 14.2585Z" fill="white"/>
<path d="M114.439 17.9735C114.439 15.3201 114.439 12.6667 114.439 10.0133C114.439 9.19316 114.584 9.09668 115.404 9.09668C117.334 9.09668 119.215 9.09668 121.145 9.09668C122.833 9.09668 124.474 9.28966 125.969 10.2063C127.224 10.9782 127.851 12.0878 127.899 13.4868C127.947 16.4779 127.947 19.5173 127.899 22.5084C127.851 24.4381 126.596 25.9337 124.474 26.4644C123.412 26.7538 122.254 26.8985 121.193 26.8985C119.263 26.9468 117.334 26.8985 115.404 26.8985C114.632 26.8985 114.487 26.8021 114.487 25.9819C114.439 23.3285 114.439 20.6751 114.439 17.9735ZM118.684 17.9735C118.684 19.6138 118.684 21.3023 118.684 22.9426C118.684 23.1838 118.636 23.4733 119.022 23.4733C119.939 23.4733 120.855 23.5215 121.772 23.425C122.882 23.3285 123.605 22.6049 123.605 21.5918C123.605 19.1796 123.605 16.7674 123.605 14.3552C123.605 13.4868 123.123 12.8114 122.254 12.6667C121.241 12.522 120.228 12.5702 119.215 12.4737C118.733 12.4255 118.636 12.6185 118.636 13.0526C118.684 14.7412 118.684 16.3815 118.684 17.9735Z" fill="white"/>
<path d="M62.1441 39.8757C62.1441 38.1872 62.0959 36.4987 62.1441 34.7619C62.1923 33.0251 63.2537 32.012 64.7492 31.3849C67.1614 30.42 69.6218 30.3717 72.034 31.0954C74.205 31.7708 75.4593 32.8804 75.4593 35.5821C75.4593 38.3319 75.4111 41.0818 75.4593 43.7835C75.5076 46.871 73.819 48.1254 71.1656 48.7043C70.5385 48.849 69.8631 48.9938 69.2359 48.9938C67.2097 48.9455 65.1834 48.8008 63.4949 47.4982C62.4336 46.7263 62.0476 45.5685 62.0476 44.3141C62.1441 42.8668 62.1441 41.3713 62.1441 39.8757ZM66.293 39.8275C66.293 41.1301 66.293 42.4326 66.293 43.687C66.293 44.5554 66.679 45.1343 67.4991 45.3273C68.1745 45.5202 68.9464 45.5685 69.6218 45.5202C70.7314 45.3755 71.2621 44.7001 71.2621 43.6387C71.2621 41.1301 71.2621 38.5732 71.2621 36.0645C71.2621 35.5821 71.1656 35.0996 70.7797 34.7619C69.8631 33.99 68.8017 33.9418 67.7403 34.2795C66.6307 34.6172 66.293 35.0996 66.293 36.2575C66.293 37.4636 66.293 38.6214 66.293 39.8275Z" fill="white"/>
<path d="M91.1379 16.527C91.1379 18.6014 91.1379 20.6759 91.1379 22.7021C91.1379 24.6319 89.8353 25.9345 88.4362 26.4651C86.0723 27.3818 83.6119 27.43 81.1997 26.7064C79.1252 26.0792 77.7744 24.9214 77.7744 22.268C77.7744 18.2155 77.7744 14.2113 77.7744 10.1588C77.7744 9.1457 77.9191 9.00098 78.884 9.00098C79.6559 9.00098 80.4761 9.00098 81.2479 9.00098C81.6821 9.00098 81.9234 9.19395 81.9716 9.67638C81.9716 9.9176 81.9716 10.1588 81.9716 10.3518C81.9716 13.9218 81.9716 17.4918 81.9716 21.0619C81.9716 23.2328 83.4189 24.2459 85.4934 23.5705C86.603 23.2328 86.9407 22.5574 86.9407 21.5925C86.8924 17.7331 86.9407 13.8253 86.9407 9.96585C86.9407 9.19395 87.1337 9.00098 87.9056 9.00098C88.7257 9.00098 89.5458 9.00098 90.4142 9.00098C91.0414 9.00098 91.1861 9.1457 91.1861 9.77287C91.1379 12.0886 91.1379 14.3078 91.1379 16.527Z" fill="white"/>
<path d="M132.193 39.7811C132.193 37.1277 132.193 34.4743 132.193 31.8692C132.193 31.049 132.338 30.9043 133.158 30.9043C136.053 30.9043 138.899 30.9043 141.794 30.9043C142.566 30.9043 142.71 31.049 142.71 31.8209C142.71 32.3998 142.71 32.9305 142.71 33.5094C142.662 34.1849 142.469 34.3778 141.842 34.3778C140.25 34.3778 138.658 34.3778 137.114 34.3778C136.632 34.3778 136.439 34.4743 136.487 34.9568C136.535 35.7286 136.535 36.5488 136.487 37.3207C136.487 37.8031 136.632 37.9479 137.114 37.9479C138.513 37.9479 139.912 37.9479 141.263 37.9479C142.228 37.9479 142.325 38.0443 142.325 39.0575C142.325 39.4916 142.325 39.9258 142.325 40.4083C142.325 41.0354 142.132 41.2284 141.456 41.2284C140.009 41.2284 138.562 41.2284 137.114 41.2284C136.632 41.2284 136.439 41.3731 136.439 41.9038C136.487 42.8687 136.487 43.8818 136.439 44.8467C136.439 45.2809 136.535 45.4256 137.018 45.4256C138.706 45.4256 140.395 45.4256 142.132 45.4256C142.807 45.4256 143 45.6186 143 46.294C143 46.9212 143 47.5483 143 48.1272C143 48.6097 142.759 48.8991 142.18 48.8991C139.14 48.8991 136.101 48.8991 133.062 48.8991C132.435 48.8991 132.242 48.7062 132.242 48.0308C132.193 45.2326 132.193 42.4827 132.193 39.7811Z" fill="white"/>
<path d="M101.896 17.9749C101.896 15.3215 101.896 12.6681 101.896 10.0629C101.896 9.09805 101.944 9.0498 102.909 9.0498C103.681 9.0498 104.404 9.0498 105.176 9.0498C105.948 9.0498 106.045 9.14629 106.045 9.91819C106.045 13.054 106.045 16.1899 106.045 19.3739C106.045 20.5318 106.045 21.7379 106.045 22.8957C106.045 23.3299 106.189 23.4746 106.672 23.4746C108.167 23.4264 109.663 23.4746 111.207 23.4746C111.93 23.4746 112.075 23.6194 112.075 24.2948C112.075 24.9702 112.075 25.5973 112.075 26.2728C112.075 26.7069 111.882 26.8999 111.448 26.8999C108.457 26.8999 105.514 26.8999 102.523 26.8999C101.992 26.8999 101.896 26.5622 101.896 26.128C101.896 24.0053 101.896 21.9308 101.896 19.8081C101.896 19.2292 101.896 18.602 101.896 17.9749Z" fill="white"/>
<path d="M95.431 39.8776C95.431 37.2242 95.431 34.5708 95.431 31.8692C95.431 30.9525 95.5275 30.9043 96.4441 30.9043C97.216 30.9043 97.9397 30.9043 98.7116 30.9043C99.5317 30.9043 99.6282 31.0008 99.6282 31.8209C99.6282 35.9216 99.6282 40.0223 99.6282 44.1713C99.6282 45.6186 99.5317 45.3291 100.834 45.3774C102.137 45.3774 103.439 45.3774 104.79 45.3774C105.466 45.3774 105.61 45.5221 105.659 46.1975C105.659 46.8247 105.659 47.4518 105.659 48.1272C105.659 48.6579 105.417 48.8991 104.887 48.8991C101.992 48.8991 99.1458 48.8991 96.2511 48.8991C95.5757 48.8991 95.4792 48.8027 95.4792 48.0308C95.3828 45.2326 95.431 42.5792 95.431 39.8776Z" fill="white"/>
<path d="M112.171 39.8776C112.171 42.531 112.171 45.1844 112.171 47.8378C112.171 48.6579 112.027 48.7544 111.206 48.8027C110.386 48.8027 109.566 48.8027 108.794 48.8027C108.119 48.8027 107.974 48.6097 107.974 47.9825C107.974 42.5792 107.974 37.1277 107.974 31.7244C107.974 31.049 108.119 30.9043 108.794 30.9043C109.663 30.9043 110.531 30.9043 111.399 30.9043C112.027 30.9043 112.171 31.0973 112.171 31.7244C112.171 34.4261 112.171 37.176 112.171 39.8776Z" fill="white"/>
<path d="M98.4722 18.0217C98.4722 20.6751 98.4722 23.3285 98.4722 26.0302C98.4722 26.8985 98.3757 26.9468 97.5556 26.9468C96.7837 26.9468 96.0118 26.9468 95.2399 26.9468C94.4197 26.9468 94.3232 26.8503 94.3232 26.0302C94.3232 21.3988 94.3232 16.7192 94.3232 12.0878C94.3232 11.3641 94.3232 10.6405 94.3232 9.86857C94.3232 9.19316 94.468 9.09668 95.0951 9.09668C95.9635 9.09668 96.8319 9.09668 97.7003 9.09668C98.3275 9.09668 98.4722 9.24141 98.4722 9.86857C98.4722 12.5702 98.4722 15.2719 98.4722 18.0217Z" fill="white"/>
</svg>
